<?xml version="1.0" encoding="utf-8"?>
<!-- Generator: Adobe Illustrator 16.0.0, SVG Export Plug-In . SVG Version: 6.00 Build 0)  -->
<!DOCTYPE svg PUBLIC "-//W3C//DTD SVG 1.1//EN" "http://www.w3.org/Graphics/SVG/1.1/DTD/svg11.dtd">
<svg version="1.1" id="Layer_1" xmlns="http://www.w3.org/2000/svg" xmlns:xlink="http://www.w3.org/1999/xlink" x="0px" y="0px"
	 width="459px" height="129px" viewBox="0 0 459 129" enable-background="new 0 0 459 129" xml:space="preserve">
<g>
	<g>
		<g>
			<g>
				<path fill="#F7931E" d="M104.205,10.801c-3,1.595-5.884,4.385-8.656,8.371c-2.776,3.986-5.535,8.609-8.277,13.871
					c-2.74,5.261-5.532,10.843-8.367,16.741c-2.841,5.899-5.835,11.575-8.995,17.028s-6.492,10.396-9.999,14.828
					c-3.509,4.435-7.333,7.798-11.479,10.093c-3.509,1.913-6.857,3.205-10.043,3.875c-3.192,0.669-6.171,0.861-8.947,0.572
					c-2.772-0.285-5.28-0.955-7.509-2.008c-2.232-1.051-4.115-2.345-5.645-3.875c-1.659-1.593-3.282-3.697-4.88-6.313
					c-1.59-2.615-2.691-5.597-3.298-8.945c-0.609-3.348-0.511-7.014,0.288-11.001c0.796-3.985,2.788-8.18,5.981-12.581
					c2.675-3.315,5.881-6.041,9.613-8.178c3.728-2.137,7.762-3.699,12.102-4.688c4.335-0.988,8.913-1.466,13.727-1.435
					c4.814,0.033,9.643,0.56,14.492,1.578c-0.831,1.787-1.849,3.445-3.061,4.975c-1.084,1.277-2.487,2.488-4.21,3.635
					c-1.721,1.148-3.793,1.882-6.216,2.202c-1.401,0.255-3.156,0.383-5.264,0.383c-2.103,0-4.384,0.159-6.839,0.477
					c-2.458,0.319-4.974,0.958-7.558,1.914c-2.581,0.956-5.054,2.52-7.411,4.688c-1.915,1.786-3.528,3.843-4.833,6.17
					c-1.308,2.328-2.247,4.751-2.822,7.27c-0.575,2.523-0.813,5.023-0.717,7.51c0.095,2.488,0.559,4.736,1.385,6.744
					c0.829,2.009,2.058,3.717,3.686,5.119c1.625,1.403,3.649,2.265,6.073,2.583c2.74,0.383,5.455-0.255,8.133-1.913
					c2.68-1.658,5.295-4.018,7.844-7.08c2.55-3.061,5.053-6.664,7.51-10.81c2.454-4.144,4.86-8.514,7.222-13.105
					c2.358-4.592,4.69-9.232,6.983-13.919c2.294-4.688,4.576-9.119,6.84-13.297c2.265-4.177,4.494-7.926,6.696-11.24
					c2.204-3.316,4.388-5.899,6.555-7.749c1.782-1.53,3.792-2.536,6.024-3.013c2.233-0.479,4.338-0.686,6.314-0.623
					c1.975,0.063,3.686,0.256,5.117,0.574C103.199,10.546,104.014,10.739,104.205,10.801z M97.891,55.476
					c-0.574,7.653-0.225,14.144,1.053,19.467c1.275,5.326,3.029,9.757,5.262,13.297c2.23,3.541,4.733,6.362,7.51,8.467
					c2.773,2.104,5.37,3.73,7.796,4.88c0.765,0.444,1.306,0.858,1.627,1.242c0.188,0.255,0.288,0.479,0.288,0.671
					c-4.02,0.764-7.734,0.699-11.146-0.192c-3.416-0.894-6.488-2.425-9.231-4.591c-2.745-2.17-5.135-4.879-7.175-8.133
					c-2.045-3.254-3.699-6.84-4.975-10.762c-1.277-3.923-2.135-8.083-2.583-12.484c-0.448-4.401-0.448-8.864,0-13.393
					c-0.895-0.222-4.96-1.454-6.282-2.23c-0.188-0.111-0.43-0.665-0.315-1c0.562-1.668,3.108-5.519,3.536-6.434
					c0.139-0.287,0.384-0.413,1.148-0.285c0.766,0.128,1.85,0.351,3.25,0.669c1.022-4.846,2.425-9.055,4.211-12.627
					c1.785-3.571,3.539-6.568,5.262-8.992c2.041-2.806,4.146-5.167,6.314-7.08c0.062,0.191,0.158,0.417,0.288,0.669
					c0.063,0.191,0.128,0.446,0.188,0.765c0.066,0.32,0.098,0.638,0.098,0.957c0,0.319-0.238,1.021-0.717,2.105
					c-0.48,1.084-1.023,2.726-1.628,4.926c-0.604,2.2-1.229,5.008-1.866,8.418c-0.637,3.414-1.146,7.542-1.531,12.389
					c1.914,0.128,3.891,0.096,5.934-0.097c2.039-0.19,4.145-0.605,6.313-1.243c0.445-0.127,0.97-0.255,1.58-0.381
					c0.605-0.128,1.16-0.256,1.674-0.383c0.633-0.127,1.275-0.254,1.916-0.384c-0.516,2.617-1.44,4.673-2.777,6.171
					c-1.34,1.5-2.854,2.648-4.544,3.444c-1.688,0.799-3.462,1.34-5.31,1.626C101.205,55.237,99.487,55.412,97.891,55.476z"/>
			</g>
		</g>
	</g>
	<g>
		<g>
			<g>
				<path fill="#F7931E" d="M228.09,88.193c1.146-1.275,2.355-2.838,3.633-4.688c1.277-1.85,2.486-3.698,3.635-5.549
					c1.15-1.849,2.188-3.539,3.109-5.069c0.922-1.532,1.609-2.614,2.055-3.253c0.193-0.319,0.447-0.494,0.768-0.527
					c0.318-0.031,0.588,0.048,0.811,0.239c0.227,0.192,0.369,0.495,0.434,0.909c0.059,0.416-0.035,0.847-0.287,1.292
					c-0.512,0.894-1.229,2.104-2.152,3.634c-0.926,1.532-1.883,3.096-2.869,4.687c-0.99,1.595-1.949,3.096-2.871,4.497
					c-0.928,1.406-1.643,2.457-2.152,3.158c-2.041,2.869-4.352,4.816-6.938,5.836c-2.584,1.02-5.277,1.02-8.082,0
					c-2.044-0.768-3.444-2.089-4.209-3.971c-0.766-1.88-0.926-3.938-0.48-6.172c0.191-0.956,0.48-2.152,0.861-3.586
					c0.384-1.435,0.782-2.836,1.195-4.208c0.414-1.371,0.783-2.583,1.102-3.636c0.316-1.052,0.51-1.674,0.574-1.865
					c-0.639,0.957-1.405,2.152-2.297,3.587c-0.895,1.435-1.785,2.855-2.678,4.257c-0.891,1.404-1.709,2.663-2.437,3.779
					c-0.739,1.117-1.231,1.802-1.485,2.056c-2.041,2.616-3.778,4.673-5.213,6.171c-1.438,1.499-2.982,2.758-4.646,3.779
					c-0.635,0.382-1.638,0.686-3.009,0.908c-1.375,0.225-2.822,0.225-4.353,0c-1.532-0.223-2.966-0.717-4.306-1.483
					c-1.338-0.765-2.297-1.913-2.867-3.444c-0.639-1.721-0.83-3.633-0.574-5.738c0.254-2.104,0.699-4.163,1.336-6.171
					c0.639-2.008,1.375-3.858,2.201-5.549c0.831-1.688,1.502-2.979,2.008-3.873c2.809-4.719,6.297-8.88,10.478-12.484
					c4.177-3.603,9.165-6.042,14.97-7.319c5.23-1.148,10.045-1.18,14.445-0.095c0.639,0.19,1.26,0.445,1.863,0.765
					c0.607,0.32,1.104,0.686,1.488,1.101c0.381,0.414,0.555,0.828,0.525,1.242c-0.033,0.416-0.402,0.781-1.1,1.101
					c-0.32,0.128-1.055,0.319-2.203,0.574c-1.146,0.255-2.457,0.59-3.92,1.005c-1.469,0.415-2.981,0.894-4.544,1.435
					c-1.565,0.543-2.953,1.164-4.163,1.866c-3.063,1.785-5.74,3.875-8.035,6.265c-2.297,2.393-4.227,4.769-5.793,7.128
					c-1.561,2.359-2.801,4.528-3.725,6.504c-0.928,1.979-1.518,3.412-1.771,4.304c-0.573,1.724-0.876,3.095-0.907,4.115
					c-0.035,1.021,0.078,1.77,0.334,2.247c0.254,0.479,0.604,0.751,1.053,0.814c0.445,0.063,0.923,0,1.433-0.191
					c0.892-0.319,1.976-1.164,3.253-2.537c1.274-1.37,2.566-2.949,3.874-4.734c1.306-1.785,2.583-3.618,3.827-5.501
					c1.244-1.88,2.248-3.524,3.015-4.926c2.358-4.209,4.384-7.318,6.072-9.328c1.689-2.009,3.046-3.204,4.065-3.587
					c1.787-0.701,3.523-1.147,5.215-1.34c1.688-0.19,3.043-0.126,4.066,0.192c0.574,0.128,0.811,0.733,0.715,1.817
					c-0.094,1.085-0.428,2.457-1.004,4.113c-0.572,1.66-1.305,3.525-2.197,5.597c-0.896,2.075-1.803,4.195-2.728,6.362
					c-0.927,2.168-1.836,4.304-2.726,6.41c-0.896,2.103-1.592,4.018-2.105,5.742c-0.32,0.955-0.338,1.752-0.049,2.39
					s0.748,1.067,1.387,1.292c0.638,0.224,1.402,0.158,2.299-0.192C226.205,89.996,227.13,89.277,228.09,88.193z"/>
			</g>
		</g>
	</g>
	<g>
		<g>
			<g>
				<path fill="#F7931E" d="M241.098,43.997c3.059-0.767,5.932-1.197,8.609-1.291c2.678-0.098,4.752,0.462,6.219,1.672
					c0.637,0.512,0.939,1.403,0.906,2.679c-0.031,1.277-0.27,2.743-0.715,4.4c-0.449,1.66-1.006,3.398-1.676,5.215
					c-0.666,1.818-1.357,3.508-2.057,5.071c-0.701,1.563-1.307,2.917-1.816,4.065c-0.51,1.147-0.828,1.881-0.955,2.2
					c-0.383,0.893-0.447,1.339-0.191,1.339c0.063,0.064,0.191,0,0.381-0.191c1.85-2.551,4.115-5.215,6.793-7.988
					c2.678-2.774,5.387-5.31,8.131-7.605c2.744-2.296,5.359-4.146,7.846-5.548c2.486-1.403,4.498-2.01,6.027-1.818
					c1.529,0.189,2.389,0.956,2.58,2.295c0.195,1.34,0.033,2.887-0.477,4.642c-0.512,1.753-1.197,3.476-2.061,5.166
					c-0.859,1.689-1.572,2.95-2.15,3.778c-0.574,0.894-0.941,1.499-1.1,1.817c-0.158,0.32-0.178,0.544-0.051,0.67
					c0.131,0.128,0.354,0.096,0.672-0.096c4.02-5.612,7.656-9.838,10.908-12.675c3.25-2.837,6.072-4.736,8.463-5.693
					c2.393-0.956,4.338-1.209,5.838-0.764c1.498,0.446,2.5,1.116,3.012,2.007c0.32,0.575,0.365,1.597,0.146,3.062
					c-0.227,1.468-0.658,3.141-1.293,5.022c-0.635,1.882-1.373,3.892-2.199,6.027c-0.83,2.138-1.674,4.178-2.539,6.123
					c-0.861,1.946-1.654,3.699-2.389,5.261c-0.732,1.563-1.26,2.727-1.58,3.493c-0.572,1.146-1.195,2.582-1.865,4.304
					c-0.666,1.722-1.113,3.287-1.34,4.688c-0.223,1.404-0.047,2.439,0.527,3.109c0.578,0.672,1.848,0.526,3.828-0.43
					c1.275-0.639,2.646-1.928,4.111-3.875c1.469-1.945,2.838-4.002,4.115-6.17c1.467-2.487,2.936-5.229,4.398-8.227
					c0.064-0.319,0.193-0.605,0.385-0.86c0.381-0.511,0.826-0.638,1.34-0.382c0.443,0.19,0.715,0.413,0.813,0.668
					c0.094,0.255,0.143,0.542,0.143,0.861c-0.064,0.319-0.16,0.669-0.289,1.052c-2.805,5.231-5.277,9.44-7.412,12.628
					c-2.139,3.189-4.129,5.644-5.98,7.365c-1.85,1.723-3.699,2.839-5.545,3.348c-1.854,0.512-3.924,0.733-6.219,0.67
					c-2.299-0.063-4.053-0.396-5.262-1.004c-1.213-0.605-2.025-1.498-2.439-2.678c-0.418-1.18-0.463-2.679-0.143-4.497
					c0.314-1.817,0.859-3.937,1.623-6.361c0.766-2.424,1.689-4.846,2.775-7.271c1.084-2.424,2.055-4.624,2.92-6.602
					c0.859-1.976,1.467-3.602,1.814-4.878c0.352-1.274,0.145-2.008-0.617-2.2c-0.834-0.192-1.709,0.017-2.633,0.622
					c-0.926,0.608-1.881,1.435-2.873,2.486c-0.988,1.053-1.977,2.297-2.963,3.732c-0.988,1.436-1.932,2.917-2.822,4.448
					c-2.107,3.572-4.213,7.687-6.314,12.339c-0.766,0.13-1.564,0.098-2.389-0.096c-0.705-0.125-1.484-0.429-2.346-0.907
					c-0.863-0.478-1.707-1.259-2.539-2.345c-0.568-0.699-0.777-1.641-0.619-2.821c0.16-1.179,0.494-2.47,1.004-3.873
					c0.512-1.403,1.117-2.854,1.818-4.353c0.701-1.499,1.34-2.934,1.912-4.307c0.576-1.37,0.969-2.613,1.197-3.73
					c0.227-1.115,0.109-1.993-0.336-2.63c-0.445-0.638-1.146-0.765-2.104-0.383c-0.959,0.383-2.057,1.148-3.301,2.297
					c-1.242,1.147-2.568,2.598-3.971,4.352s-2.805,3.683-4.209,5.787s-2.725,4.305-3.971,6.601
					c-1.242,2.295-2.307,4.529-3.203,6.697c-0.83,2.041-1.404,3.746-1.723,5.118c-0.32,1.372-0.51,2.504-0.574,3.396
					c-0.127,1.02-0.096,1.852,0.094,2.486c-1.334,0-2.691-0.285-4.064-0.86c-1.369-0.574-2.627-1.259-3.777-2.056
					c-1.148-0.797-2.15-1.611-3.014-2.441c-0.861-0.828-1.416-1.497-1.674-2.008c-0.318-0.638-0.332-1.689-0.049-3.156
					c0.285-1.466,0.764-3.172,1.438-5.119c0.672-1.944,1.465-4.05,2.391-6.314c0.926-2.262,1.832-4.479,2.727-6.648
					c0.893-2.167,1.721-4.177,2.484-6.027c0.768-1.85,1.34-3.379,1.725-4.592c0.576-1.848,0.875-3.491,0.906-4.926
					c0.035-1.435-0.045-2.631-0.238-3.586C241.799,45.622,241.479,44.699,241.098,43.997z"/>
			</g>
		</g>
	</g>
	<g>
		<g>
			<g>
				<path fill="#F7931E" d="M345.848,51.554c-2.168-0.702-4.303-1.115-6.408-1.244c-1.852-0.128-3.857,0.08-6.027,0.621
					c-2.168,0.542-4.178,1.644-6.027,3.301c-1.912,1.659-3.682,3.7-5.311,6.123c-1.623,2.423-3.045,5.007-4.256,7.748
					c-1.211,2.743-2.184,5.549-2.918,8.418c-0.734,2.87-1.164,5.549-1.291,8.036c-0.064,0.956-0.078,1.945-0.047,2.966
					c0.031,1.02,0.238,1.928,0.621,2.725c0.385,0.801,1.006,1.405,1.865,1.818c0.859,0.416,2.09,0.525,3.684,0.336
					c1.914-0.255,3.699-1.307,5.357-3.157c1.658-1.849,3.107-4.032,4.35-6.553c1.246-2.519,2.25-5.15,3.016-7.893
					s1.213-5.132,1.342-7.174c-0.576-0.191-1.088-0.509-1.531-0.958c-0.385-0.318-0.719-0.796-1.006-1.435
					c-0.287-0.637-0.369-1.402-0.236-2.296c0.123-1.083,0.479-1.975,1.049-2.678c0.572-0.701,1.291-1.211,2.156-1.531
					c0.857-0.318,1.799-0.479,2.818-0.479c1.018,0,2.01,0.13,2.965,0.383c1.277,0.384,2.313,0.957,3.111,1.723
					c0.797,0.765,1.451,1.53,1.961,2.295c0.574,0.894,0.988,1.882,1.242,2.966c0.701,0.256,1.467,0.416,2.295,0.478
					c0.703,0.064,1.535,0.017,2.49-0.143c0.957-0.159,1.977-0.493,3.063-1.005c0.125-0.062,0.314-0.205,0.574-0.431
					c0.252-0.222,0.506-0.413,0.762-0.574c0.254-0.158,0.51-0.238,0.768-0.238c0.252,0,0.477,0.129,0.672,0.382
					c0.313,0.448,0.221,1.196-0.289,2.248c-0.512,1.053-1.627,1.899-3.354,2.537c-1.529,0.573-2.912,0.845-4.156,0.813
					c-1.246-0.032-2.027-0.08-2.346-0.144c0,0.829-0.191,1.85-0.574,3.061c-0.318,1.084-0.893,2.456-1.723,4.115
					c-0.828,1.658-1.979,3.634-3.445,5.93c-1.209,1.85-2.596,3.587-4.156,5.213c-1.566,1.628-3.383,3.014-5.455,4.162
					c-2.074,1.146-4.465,1.961-7.174,2.439c-2.715,0.479-5.824,0.527-9.33,0.144c-2.551-0.318-4.623-1.036-6.217-2.153
					c-1.596-1.115-2.822-2.486-3.684-4.113s-1.432-3.396-1.721-5.309c-0.287-1.914-0.381-3.812-0.287-5.693
					c0.096-1.879,0.32-3.666,0.668-5.355c0.355-1.689,0.719-3.078,1.102-4.163c1.467-4.209,3.266-7.716,5.404-10.523
					c2.137-2.806,4.498-5.037,7.082-6.696c2.58-1.657,5.275-2.79,8.08-3.396c2.805-0.605,5.615-0.814,8.422-0.622
					c2.803,0.192,5.035,0.479,6.693,0.862c1.66,0.382,2.932,0.781,3.828,1.195c0.893,0.416,1.482,0.797,1.768,1.148
					c0.289,0.351,0.434,0.621,0.434,0.813c0.125,0.319,0.125,0.59,0,0.813C346.391,51.634,346.166,51.683,345.848,51.554z"/>
			</g>
		</g>
	</g>
	<g>
		<g>
			<g>
				<path fill="#F7931E" d="M359.91,45.622c0.256-1.02,0.863-1.466,1.82-1.34c0.955,0.13,2.006,0.575,3.154,1.34
					c1.148,0.764,2.299,1.721,3.445,2.87s2.039,2.233,2.678,3.252c0.637,1.022,0.777,2.392,0.428,4.114
					c-0.35,1.723-0.939,3.539-1.766,5.453c-0.834,1.914-1.709,3.748-2.633,5.501c-0.924,1.755-1.609,3.142-2.057,4.162
					c-0.445,1.021-1.035,2.263-1.771,3.73c-0.73,1.468-1.387,2.95-1.959,4.448c-0.574,1.499-0.99,2.902-1.246,4.21
					c-0.254,1.307-0.094,2.313,0.48,3.013c0.574,0.702,1.211,1.021,1.912,0.955c0.701-0.061,1.42-0.3,2.156-0.717
					c0.729-0.412,1.4-0.922,2.004-1.529c0.609-0.605,1.102-1.1,1.486-1.483c1.658-1.656,3.346-3.732,5.07-6.218
					c1.721-2.486,3.396-5.103,5.023-7.844c1.625-2.742,3.172-5.484,4.639-8.228c1.465-2.741,2.758-5.244,3.873-7.51
					c1.115-2.262,2.01-4.128,2.678-5.597c0.672-1.466,1.035-2.327,1.1-2.583c0.131-0.509,0.445-0.828,0.957-0.957
					c0.254,0,0.48,0.033,0.67,0.095c1.852,0.447,3.283,1.148,4.307,2.106c1.02,0.956,1.736,2.089,2.152,3.396
					c0.416,1.308,0.586,2.76,0.525,4.354c-0.063,1.594-0.285,3.189-0.668,4.781c-0.32,1.277-1.021,3.096-2.105,5.455
					c-1.084,2.36-2.264,4.863-3.537,7.509c-1.281,2.646-2.473,5.247-3.592,7.796c-1.117,2.553-1.799,4.688-2.055,6.41
					c-0.127,0.764-0.082,1.291,0.143,1.579c0.223,0.286,0.525,0.462,0.91,0.526c0.381,0.064,0.746,0.032,1.096-0.096
					c0.352-0.127,0.625-0.256,0.816-0.383c2.422-1.531,4.621-3.363,6.602-5.501c1.975-2.136,3.682-4.209,5.115-6.219
					c1.436-2.009,2.566-3.761,3.396-5.261c0.83-1.498,1.305-2.343,1.436-2.534c0.445-0.766,1.053-1.149,1.818-1.149
					c0.25,0,0.445,0.256,0.574,0.767v0.765c-0.574,1.402-1.5,3.158-2.775,5.261c-1.275,2.104-2.76,4.274-4.449,6.505
					c-1.688,2.234-3.461,4.387-5.307,6.457c-1.852,2.074-3.604,3.813-5.266,5.215c-1.717,1.403-3.344,2.186-4.875,2.344
					c-1.529,0.158-2.916-0.031-4.164-0.574c-1.242-0.541-2.293-1.292-3.154-2.248c-0.859-0.957-1.484-1.848-1.867-2.679
					c-0.445-0.892-0.619-2.167-0.527-3.827c0.096-1.656,0.271-3.348,0.527-5.069c0.254-1.977,0.639-4.113,1.146-6.41
					c-0.57,1.148-1.305,2.426-2.199,3.827c-0.766,1.212-1.723,2.679-2.869,4.4c-1.146,1.723-2.551,3.604-4.207,5.645
					c-1.658,2.105-3.316,3.621-4.979,4.543c-1.658,0.926-3.123,1.549-4.396,1.865c-1.596,0.32-3.064,0.383-4.402,0.191
					c-2.68-0.383-4.527-1.467-5.549-3.252c-1.02-1.784-1.514-3.936-1.48-6.457c0.031-2.519,0.443-5.245,1.242-8.179
					s1.738-5.74,2.82-8.418c1.086-2.679,2.152-5.055,3.205-7.127c1.055-2.073,1.801-3.556,2.25-4.45
					c0.699-1.274,1.197-2.549,1.482-3.826c0.285-1.276,0.496-2.454,0.623-3.539C359.939,48.046,359.971,46.835,359.91,45.622z"/>
			</g>
		</g>
	</g>
</g>
<g>
	<g>
		<g>
			<path fill="#F7931E" d="M192.883,69.539c-0.32-0.128-0.59-0.096-0.813,0.096c-0.224,0.192-0.432,0.415-0.621,0.669
				c-0.256,0.255-0.447,0.607-0.573,1.052c-0.321,0.702-0.99,1.978-2.01,3.827c-1.021,1.852-2.234,3.796-3.64,5.835
				c-1.4,2.043-2.898,3.94-4.493,5.692c-1.593,1.754-3.096,2.887-4.495,3.396c-0.959,0.384-1.436,0.033-1.436-1.051
				s0.254-2.537,0.766-4.354c0.51-1.816,1.195-3.874,2.053-6.169c0.865-2.296,1.74-4.51,2.633-6.648
				c0.893-2.137,1.693-4.018,2.393-5.645c0.703-1.626,1.148-2.728,1.34-3.301c0.635-1.975,1.066-3.779,1.291-5.404
				c0.221-1.627,0.078-3.014-0.432-4.162c-0.51-1.147-1.512-1.975-3.01-2.487c-1.504-0.51-3.685-0.636-6.557-0.383
				c-1.086,0.129-2.232,0.448-3.445,0.956c-1.207,0.512-2.437,1.134-3.682,1.866c-1.24,0.734-2.472,1.547-3.684,2.44
				c-1.209,0.893-2.387,1.817-3.537,2.774c-0.205,0.171-0.412,0.355-0.616,0.53l-7.229,6.931c0.192-0.636,0.35-1.052,0.479-1.244
				c0.028-0.04,0.056-0.095,0.085-0.152c0.101-0.243,0.209-0.513,0.326-0.807c0.025-0.063,0.045-0.12,0.067-0.188
				c0.005-0.004,0.011-0.009,0.017-0.014c1.486-3.683,4.316-10.68,5.799-14.408c2.076-5.211,6.863-16.481,10.168-21.905
				c0.527-0.861,1.148-1.798,1.83-2.75c0.336-0.483,0.666-0.926,0.985-1.328c2.523-3.29,5.58-6.45,7.771-7.101
				c0.725-0.217,0.877-1.401,0.025-1.762c-2.039-0.829-4.194-0.845-6.457-0.048c-2.264,0.798-4.564,2.296-6.889,4.496
				c-2.326,2.201-4.672,5.086-7.029,8.659c-2.361,3.572-4.66,7.716-6.891,12.435c-1.529,3.253-3.061,6.697-4.59,10.333
				c-1.531,3.635-2.984,7.238-4.355,10.81c-1.369,3.571-2.631,7.047-3.779,10.426c-1.146,3.381-2.117,6.442-2.915,9.184
				c-0.796,2.743-1.388,5.088-1.771,7.032c-0.383,1.946-0.48,3.269-0.291,3.97c0.324,1.085,1.105,1.865,2.348,2.344
				c1.244,0.479,2.602,0.814,4.066,1.006c1.656,0.254,3.505,0.316,5.546,0.19c-0.128-1.21,0-2.807,0.384-4.784
				c0.383-1.976,0.876-4.034,1.484-6.17c0.604-2.137,1.293-4.241,2.057-6.314c0.763-2.071,1.496-3.81,2.199-5.213
				c1.34-2.742,2.87-5.167,4.591-7.271c1.722-2.104,3.445-3.905,5.167-5.404c1.724-1.499,3.332-2.631,4.833-3.397
				c1.497-0.765,2.661-1.178,3.487-1.242c0.896-0.063,1.309,0.477,1.244,1.625c-0.062,1.148-0.396,2.615-1.004,4.4
				c-0.602,1.786-1.389,3.811-2.342,6.075c-0.957,2.265-1.932,4.481-2.918,6.648c-0.988,2.17-1.881,4.195-2.68,6.075
				c-0.797,1.881-1.324,3.365-1.578,4.45c-0.381,1.658-0.621,3.06-0.715,4.207c-0.1,1.15,0.141,2.139,0.715,2.966
				c0.574,0.831,1.514,1.5,2.823,2.011c1.302,0.51,3.173,0.925,5.595,1.242c1.594,0.254,3.219-0.063,4.88-0.957
				c1.658-0.891,3.251-2.088,4.784-3.586c1.529-1.498,2.996-3.174,4.4-5.023c1.402-1.848,2.627-3.603,3.681-5.261
				c1.054-1.658,1.916-3.109,2.586-4.353c0.667-1.244,1.067-2.023,1.192-2.343c0.511-0.892,0.847-1.721,1.007-2.487
				C193.664,70.303,193.457,69.794,192.883,69.539z"/>
		</g>
	</g>
</g>
<g>
	<g>
		<g>
			<path fill="#F7931E" d="M143.713,65.329c-0.383-0.126-0.734,0.049-1.053,0.527c-0.32,0.477-0.574,0.876-0.766,1.195
				c-0.191,0.383-0.637,1.244-1.338,2.583c-0.701,1.339-1.625,2.917-2.775,4.735c-1.147,1.817-2.532,3.716-4.162,5.692
				c-1.625,1.978-3.49,3.763-5.596,5.356c-2.615,1.979-4.609,2.999-5.979,3.063c-1.373,0.063-2.328-0.318-2.871-1.15
				c-0.543-0.827-0.813-1.846-0.813-3.059c0-1.211,0.031-2.106,0.096-2.681c0.192-2.166,0.397-4.031,0.623-5.595
				c0.225-1.563,0.477-2.998,0.763-4.305c0.289-1.307,0.624-2.382,1.005-3.625c0.125-0.403,0.258-1.066,0.395-1.066h-0.023
				c0,0,0.257-1.021,0.738-2.468c0.078-0.24,0.152-0.577,0.231-0.825c0.005-0.003,0.013-0.058,0.017-0.062
				c1.639-4.872,5.232-15.059,10.073-25.746c5.766-12.728,12.833-25.087,17.618-27.429c0.707-0.343,0.186-1.347-1.018-1.577
				c-2.104-0.382-4.255-0.017-6.458,1.098c-2.2,1.116-4.401,2.774-6.599,4.974c-2.203,2.2-4.355,4.846-6.459,7.938
				c-2.105,3.096-4.131,6.443-6.074,10.044c-1.949,3.604-3.765,7.353-5.451,11.242c-1.695,3.891-3.195,7.718-4.496,11.479
				c-1.309,3.764-2.426,7.367-3.352,10.811c-0.92,3.443-1.575,6.505-1.959,9.183c-0.637,4.401-0.732,7.893-0.286,10.475
				c0.446,2.585,1.193,4.514,2.245,5.787c1.053,1.277,2.281,2.059,3.684,2.346c1.404,0.287,2.777,0.335,4.112,0.143
				c2.489-0.443,4.835-1.322,7.033-2.629c2.202-1.308,4.226-2.838,6.073-4.594c1.852-1.754,3.494-3.602,4.93-5.548
				c1.436-1.944,2.678-3.778,3.727-5.501c1.058-1.721,1.898-3.188,2.537-4.4c0.637-1.211,1.022-1.976,1.146-2.296
				c0.701-1.34,1.053-2.327,1.053-2.965C144.285,65.84,144.096,65.458,143.713,65.329z"/>
		</g>
	</g>
</g>
<g>
	<g>
		<g>
			<g>
				<path fill="#333333" d="M402.758,90.496c0.268-0.029,0.48-0.007,0.656,0.071c0.17,0.077,0.307,0.188,0.4,0.328
					c0.092,0.14,0.164,0.301,0.209,0.481c0.047,0.179,0.07,0.355,0.07,0.527c0.018,0.188-0.055,0.363-0.209,0.527
					c-0.158,0.164-0.346,0.313-0.564,0.445c-0.221,0.133-0.453,0.245-0.703,0.338c-0.248,0.096-0.469,0.15-0.656,0.166
					c-0.186,0.031-0.363-0.016-0.529-0.141c-0.162-0.125-0.297-0.293-0.408-0.504s-0.176-0.446-0.197-0.703
					c-0.027-0.26,0.018-0.496,0.127-0.715c0.107-0.234,0.266-0.406,0.469-0.516c0.205-0.109,0.406-0.189,0.609-0.235
					C402.266,90.505,402.506,90.48,402.758,90.496z"/>
			</g>
		</g>
	</g>
	<g>
		<g>
			<g>
				<path fill="#333333" d="M412.529,87.826c0.553-0.627,0.992-1.195,1.338-1.712c0.139-0.218,0.27-0.44,0.389-0.669
					c0.113-0.227,0.197-0.438,0.242-0.632c0.051-0.196,0.051-0.37,0.012-0.526c-0.039-0.157-0.141-0.283-0.314-0.376
					c-0.348-0.171-0.744-0.116-1.193,0.165c-0.457,0.28-0.918,0.679-1.383,1.194c-0.471,0.516-0.92,1.099-1.352,1.747
					c-0.43,0.648-0.783,1.262-1.064,1.838c-0.297,0.563-0.502,1.131-0.607,1.701c-0.111,0.57-0.111,1.065,0,1.487
					c0.105,0.423,0.33,0.747,0.666,0.974c0.332,0.226,0.805,0.276,1.395,0.15c0.592-0.123,1.242-0.393,1.943-0.807
					c0.705-0.414,1.391-0.906,2.064-1.477c0.674-0.572,1.297-1.186,1.877-1.84c0.578-0.657,1.035-1.29,1.381-1.898
					c0.031-0.048,0.07-0.086,0.119-0.117c0.074-0.047,0.146-0.023,0.209,0.069c0.078,0.126,0.088,0.227,0.039,0.304
					c-0.059,0.08-0.133,0.204-0.227,0.376c-0.031,0.063-0.15,0.245-0.354,0.552c-0.201,0.303-0.482,0.674-0.84,1.113
					c-0.361,0.438-0.779,0.909-1.258,1.417c-0.477,0.507-1.002,0.989-1.578,1.442c-0.582,0.453-1.199,0.852-1.865,1.195
					c-0.662,0.344-1.348,0.57-2.051,0.679c-1.064,0.173-1.92,0.048-2.566-0.375c-0.65-0.421-1.098-1.015-1.352-1.78
					c-0.246-0.766-0.305-1.649-0.172-2.648c0.133-1,0.447-2.001,0.951-3c0.514-1.048,1.174-1.896,1.977-2.543
					c0.805-0.648,1.635-1.111,2.486-1.383c0.852-0.274,1.68-0.368,2.484-0.282c0.807,0.085,1.473,0.339,2.004,0.762
					c0.422,0.328,0.684,0.719,0.783,1.17c0.1,0.454,0.092,0.908-0.033,1.359c-0.125,0.453-0.344,0.879-0.656,1.278
					s-0.662,0.708-1.055,0.927c-0.592,0.326-1.121,0.5-1.57,0.516C412.945,88.193,412.658,88.076,412.529,87.826z"/>
			</g>
		</g>
	</g>
	<g>
		<g>
			<g>
				<path fill="#333333" d="M427.508,83.676c-0.531-0.172-1.055-0.271-1.57-0.305c-0.451-0.031-0.943,0.021-1.479,0.153
					c-0.527,0.134-1.021,0.401-1.477,0.81c-0.467,0.405-0.902,0.906-1.295,1.5c-0.4,0.594-0.75,1.227-1.047,1.897
					c-0.297,0.672-0.533,1.359-0.715,2.063c-0.18,0.701-0.283,1.359-0.316,1.968c-0.014,0.235-0.021,0.478-0.012,0.728
					c0.008,0.25,0.057,0.472,0.154,0.668c0.092,0.194,0.246,0.344,0.457,0.445s0.51,0.129,0.9,0.082
					c0.467-0.063,0.906-0.32,1.313-0.773c0.408-0.453,0.762-0.99,1.064-1.606c0.307-0.616,0.553-1.261,0.74-1.933
					c0.189-0.673,0.295-1.258,0.33-1.758c-0.141-0.048-0.27-0.126-0.377-0.236c-0.094-0.078-0.176-0.193-0.246-0.35
					c-0.068-0.156-0.09-0.344-0.057-0.564c0.027-0.264,0.117-0.482,0.254-0.654c0.141-0.173,0.318-0.297,0.531-0.377
					c0.211-0.076,0.439-0.117,0.691-0.117c0.248,0,0.492,0.031,0.725,0.096c0.311,0.093,0.568,0.234,0.762,0.422
					c0.195,0.188,0.355,0.375,0.48,0.562c0.141,0.218,0.24,0.462,0.309,0.728c0.168,0.063,0.355,0.102,0.559,0.117
					c0.172,0.015,0.377,0.004,0.609-0.037c0.236-0.037,0.484-0.12,0.75-0.244c0.033-0.018,0.078-0.051,0.143-0.105
					c0.061-0.055,0.123-0.103,0.189-0.143c0.057-0.038,0.123-0.059,0.184-0.059c0.063,0,0.115,0.033,0.166,0.095
					c0.072,0.11,0.055,0.292-0.07,0.552c-0.125,0.257-0.4,0.464-0.822,0.62c-0.375,0.141-0.713,0.207-1.02,0.198
					c-0.305-0.006-0.494-0.018-0.572-0.034c0,0.203-0.049,0.453-0.141,0.75c-0.08,0.267-0.221,0.603-0.422,1.009
					c-0.205,0.406-0.484,0.891-0.846,1.451c-0.297,0.455-0.637,0.881-1.02,1.278s-0.826,0.739-1.338,1.021
					c-0.506,0.283-1.092,0.479-1.754,0.598c-0.666,0.118-1.426,0.128-2.289,0.035c-0.623-0.078-1.131-0.256-1.521-0.527
					c-0.391-0.273-0.691-0.609-0.902-1.009c-0.211-0.398-0.35-0.833-0.42-1.301s-0.096-0.933-0.07-1.396
					c0.021-0.46,0.076-0.897,0.164-1.313c0.084-0.412,0.172-0.752,0.27-1.018c0.357-1.031,0.803-1.891,1.322-2.578
					c0.523-0.689,1.104-1.235,1.734-1.641c0.633-0.406,1.293-0.684,1.979-0.833c0.689-0.149,1.377-0.198,2.066-0.153
					c0.688,0.047,1.232,0.117,1.639,0.211c0.406,0.095,0.719,0.192,0.938,0.292c0.219,0.103,0.363,0.196,0.438,0.282
					c0.066,0.086,0.104,0.153,0.104,0.2c0.027,0.078,0.027,0.144,0,0.198C427.643,83.697,427.586,83.709,427.508,83.676z"/>
			</g>
		</g>
	</g>
	<g>
		<g>
			<g>
				<path fill="#333333" d="M429.922,81.825c0.752-0.188,1.455-0.292,2.111-0.316c0.656-0.024,1.162,0.114,1.523,0.411
					c0.152,0.125,0.23,0.343,0.223,0.656c-0.008,0.313-0.07,0.672-0.178,1.078c-0.105,0.408-0.246,0.834-0.41,1.277
					c-0.164,0.447-0.33,0.861-0.502,1.243c-0.17,0.384-0.322,0.716-0.445,0.997c-0.125,0.28-0.205,0.461-0.234,0.539
					c-0.096,0.219-0.109,0.326-0.047,0.326c0.014,0.018,0.047,0,0.094-0.047c0.451-0.625,1.006-1.277,1.662-1.957
					s1.324-1.301,1.994-1.861c0.674-0.563,1.313-1.018,1.922-1.362c0.607-0.341,1.102-0.492,1.477-0.443
					c0.373,0.047,0.584,0.235,0.633,0.563c0.047,0.328,0.008,0.707-0.119,1.135c-0.125,0.431-0.293,0.854-0.5,1.268
					c-0.213,0.414-0.389,0.723-0.531,0.925c-0.141,0.219-0.23,0.367-0.266,0.446c-0.043,0.077-0.047,0.133-0.016,0.164
					c0.031,0.03,0.09,0.023,0.164-0.025c0.986-1.375,1.875-2.41,2.674-3.105s1.488-1.16,2.072-1.394
					c0.588-0.236,1.064-0.297,1.432-0.188s0.613,0.274,0.74,0.493c0.074,0.14,0.088,0.391,0.035,0.75
					c-0.059,0.358-0.162,0.769-0.318,1.23c-0.156,0.461-0.336,0.951-0.541,1.475c-0.201,0.523-0.408,1.023-0.619,1.501
					c-0.213,0.478-0.406,0.906-0.586,1.29c-0.18,0.383-0.311,0.666-0.389,0.855c-0.137,0.279-0.293,0.631-0.455,1.055
					c-0.166,0.421-0.273,0.805-0.328,1.148c-0.057,0.344-0.01,0.596,0.129,0.762c0.141,0.164,0.455,0.127,0.939-0.105
					c0.311-0.156,0.646-0.473,1.006-0.949s0.695-0.982,1.008-1.512c0.359-0.61,0.719-1.281,1.076-2.016
					c0.016-0.078,0.049-0.148,0.098-0.212c0.09-0.126,0.201-0.156,0.326-0.093c0.111,0.045,0.176,0.102,0.199,0.162
					c0.021,0.064,0.035,0.134,0.035,0.213c-0.016,0.078-0.037,0.164-0.072,0.256c-0.686,1.283-1.291,2.313-1.814,3.095
					c-0.525,0.782-1.014,1.384-1.467,1.806c-0.453,0.42-0.902,0.693-1.357,0.819c-0.451,0.125-0.963,0.18-1.523,0.164
					c-0.564-0.015-0.992-0.097-1.291-0.245c-0.297-0.148-0.494-0.367-0.596-0.656s-0.113-0.656-0.037-1.102
					c0.078-0.446,0.213-0.965,0.4-1.559c0.186-0.596,0.414-1.188,0.682-1.782c0.262-0.594,0.5-1.132,0.711-1.618
					c0.213-0.483,0.363-0.881,0.445-1.193c0.088-0.314,0.039-0.492-0.148-0.539c-0.207-0.047-0.418,0.004-0.645,0.152
					c-0.23,0.147-0.463,0.351-0.707,0.609c-0.24,0.257-0.48,0.561-0.727,0.913c-0.24,0.351-0.473,0.714-0.689,1.091
					c-0.518,0.875-1.031,1.883-1.545,3.023c-0.191,0.031-0.387,0.023-0.588-0.025c-0.174-0.029-0.361-0.104-0.576-0.222
					c-0.209-0.118-0.418-0.309-0.619-0.575c-0.143-0.17-0.191-0.4-0.154-0.689c0.039-0.289,0.123-0.605,0.246-0.949
					c0.127-0.344,0.275-0.7,0.447-1.068c0.17-0.367,0.328-0.717,0.471-1.053c0.139-0.338,0.234-0.642,0.289-0.914
					c0.057-0.273,0.027-0.488-0.08-0.646c-0.109-0.155-0.283-0.188-0.514-0.093c-0.238,0.093-0.506,0.279-0.813,0.561
					c-0.303,0.283-0.629,0.639-0.971,1.068c-0.344,0.43-0.689,0.901-1.033,1.418c-0.342,0.514-0.666,1.053-0.973,1.617
					c-0.305,0.563-0.566,1.108-0.785,1.639c-0.203,0.502-0.342,0.92-0.42,1.254c-0.08,0.338-0.125,0.614-0.143,0.834
					c-0.031,0.25-0.023,0.453,0.023,0.609c-0.328,0-0.66-0.07-0.994-0.212c-0.336-0.141-0.646-0.308-0.928-0.504
					c-0.279-0.194-0.527-0.394-0.736-0.597s-0.35-0.367-0.41-0.492c-0.078-0.156-0.084-0.414-0.014-0.774
					c0.072-0.358,0.188-0.776,0.354-1.254c0.162-0.476,0.359-0.99,0.586-1.547c0.227-0.554,0.451-1.099,0.666-1.63
					c0.221-0.529,0.424-1.021,0.609-1.476c0.188-0.453,0.326-0.828,0.422-1.125c0.143-0.452,0.217-0.856,0.223-1.208
					c0.01-0.351-0.01-0.645-0.057-0.878C430.094,82.224,430.016,81.997,429.922,81.825z"/>
			</g>
		</g>
	</g>
</g>
<g>
	<path fill-rule="evenodd" clip-rule="evenodd" fill="#333333" d="M400.566,22.432c-0.127,0.864-0.273,1.726-0.373,2.592
		c-0.074,0.637-0.4,1.066-0.994,1.218c-1.232,0.316-2.469,0.672-3.729,0.83c-1.176,0.147-2.385,0.125-3.572,0.058
		c-1.859-0.106-2.949-1.149-3.213-3.042c-0.143-1-0.166-2.018-0.209-3.027c-0.123-2.834-0.23-5.668-0.34-8.503
		c-0.008-0.176-0.002-0.352-0.002-0.585c0.529-0.034,1.012-0.065,1.553-0.1c0.066,1.67,0.129,3.263,0.193,4.855
		c0.084,2.024,0.137,4.05,0.268,6.072c0.113,1.765,0.924,2.518,2.705,2.451c1.773-0.065,3.541-0.247,5.309-0.403
		c0.473-0.042,0.908-0.206,0.752-0.866c-0.652-0.06-1.316-0.111-1.98-0.184c-0.244-0.026-0.488-0.087-0.725-0.155
		c-1.803-0.514-2.781-1.765-2.666-3.405c0.121-1.718,1.564-3.259,3.264-3.461c0.957-0.114,1.711,0.296,2.324,0.991
		c0.818,0.931,1.156,2.063,1.305,3.269c0.039,0.331,0.088,0.66,0.131,0.99C400.566,22.162,400.566,22.297,400.566,22.432z
		 M399.08,22.287c0.02-1.236-0.209-2.317-0.953-3.233c-0.49-0.605-1.141-0.779-1.879-0.532c-0.771,0.259-1.242,0.807-1.34,1.615
		c-0.096,0.772,0.328,1.284,0.973,1.618C396.865,22.267,397.924,22.363,399.08,22.287z"/>
	<path fill-rule="evenodd" clip-rule="evenodd" fill="#333333" d="M398,11.751c0.541,0.176,0.973,0.443,1,1.098
		c0.025,0.632-0.291,1.102-0.855,1.182c-0.551,0.078-0.973-0.114-1.166-0.673c-0.199-0.58,0.027-1.197,0.523-1.449
		c0.117-0.06,0.24-0.105,0.361-0.158C397.908,11.751,397.953,11.751,398,11.751z"/>
	<path fill-rule="evenodd" clip-rule="evenodd" fill="#333333" d="M317.957,22.743c-3.277-1.43-4.979-2.285-8.275-1.268
		c0.09-0.493,0.125-0.969,0.279-1.401c0.072-0.2,0.355-0.391,0.582-0.461c1.607-0.499,3.205-0.328,4.779,0.175
		c0.512,0.164,1.02,0.356,1.514,0.571c1.525,0.66,3.01,1.455,4.83,1.233c-0.107,0.65-0.195,1.196-0.287,1.758
		c-0.383,0.02-0.717,0.037-1.271,0.067c0.324,0.516,0.508,1.014,0.855,1.323c0.797,0.708,2.859,0.719,3.719,0.095
		c0.686-0.5,0.887-1.228,0.854-2.027c-0.104-2.543-0.227-5.085-0.344-7.627c-0.047-1.031-0.092-2.062-0.141-3.172
		c0.518-0.05,0.996-0.098,1.566-0.153c0.082,1.624,0.166,3.189,0.242,4.755c0.09,1.912,0.184,3.824,0.256,5.737
		c0.02,0.538,0.01,1.083-0.068,1.614c-0.283,1.959-1.381,2.996-3.348,3.173c-0.445,0.042-0.902,0.039-1.348-0.005
		c-2.066-0.201-2.883-0.995-3.373-3.346c-0.703,0.396-1.395,0.743-2.043,1.159c-2.279,1.458-4.756,2.214-7.463,2.219
		c-1.533,0.002-1.609-0.011-2.779-0.909c-1.447,1.695-2.875,1.625-5.994-0.338c-0.994,1.657-2.674,1.17-4.195,1.262
		c-0.199,0.585-0.35,1.173-0.592,1.722c-0.912,2.067-2.33,3.58-4.652,4.006c-1.086,0.2-2.156,0.061-3.166-0.4
		c-0.842-0.385-0.881-0.494-0.65-1.381c0.039-0.15,0.096-0.297,0.143-0.444c3.807,1.186,6.908-0.3,7.279-3.416
		c-0.889-0.134-1.795-0.19-2.656-0.421c-1.688-0.45-2.551-1.74-2.504-3.545c0.041-1.606,1.133-2.99,2.641-3.354
		c1.209-0.291,2.432,0.221,3.213,1.351c0.705,1.018,0.906,2.188,1.02,3.385c0.018,0.174,0.029,0.35,0.047,0.573
		c0.68,0,1.33,0.031,1.975-0.009c0.627-0.038,1.012-0.45,1.252-0.999c0.324-0.741,0.605-1.503,0.963-2.228
		c0.52-1.059,1.244-1.87,2.555-1.904c1.342-0.034,2.193,0.706,2.814,1.77c0.281,0.479,0.482,1.016,0.646,1.549
		c0.439,1.418,1,1.847,2.49,1.833c2.396-0.021,4.695-0.444,6.822-1.616C316.713,23.333,317.309,23.065,317.957,22.743z
		 M295.154,25.412c-0.029-1.331-0.223-2.375-0.947-3.249c-0.516-0.624-1.318-0.853-2-0.614c-0.646,0.227-1.121,0.884-1.15,1.6
		c-0.029,0.795,0.334,1.448,1.166,1.694C293.131,25.112,294.088,25.214,295.154,25.412z M304.363,25.556
		c1.049,0.014,1.422-0.372,1.244-1.212c-0.115-0.539-0.305-1.094-0.594-1.557c-0.908-1.45-2.367-1.364-3.139,0.152
		c-0.141,0.279-0.285,0.571-0.348,0.873c-0.037,0.176,0.02,0.468,0.145,0.567C302.516,25.043,303.461,25.493,304.363,25.556z"/>
	<path fill-rule="evenodd" clip-rule="evenodd" fill="#333333" d="M219.674,12.004c0.5-0.048,0.965-0.094,1.521-0.148
		c0.037,0.521,0.084,1.005,0.105,1.49c0.145,3.06,0.287,6.12,0.417,9.18c0.02,0.448,0.007,0.903-0.058,1.346
		c-0.326,2.239-1.76,3.447-4.014,3.261c-0.647-0.053-1.266-0.457-2.004-0.74c-0.332,0.459-0.895,0.958-1.705,1.026
		c-0.998,0.084-1.92-0.195-2.786-0.66c-0.454-0.243-0.886-0.532-1.399-0.842c-0.543,0.833-1.334,1.281-2.42,1.243
		c0.82,1.549,0.129,2.704-0.993,3.609c-2.589,2.091-5.557,2.624-8.702,1.616c-2.171-0.696-3.102-2.478-3.158-4.647
		c-0.028-1.08,0.207-2.187,0.463-3.247c0.25-1.033,0.373-1.035,1.402-0.704c-0.139,0.929-0.36,1.849-0.398,2.778
		c-0.103,2.466,1.07,3.934,3.512,4.309c2.063,0.317,4.047-0.02,5.809-1.22c0.525-0.358,1.219-0.759,1.061-1.504
		c-0.16-0.752-0.953-0.788-1.586-0.918c-0.303-0.063-0.616-0.072-0.963-0.11c0.186-0.631,0.363-1.229,0.549-1.855
		c0.98,0,1.926-0.025,2.869,0.008c0.885,0.031,1.449-0.358,1.783-1.157c0.32-0.767,0.605-1.555,1-2.283
		c1.213-2.237,3.68-2.353,5.086-0.228c0.377,0.57,0.626,1.243,0.842,1.899c0.427,1.301,1.167,1.898,2.277,1.735
		c1.27-0.187,1.983-0.971,1.937-2.339c-0.115-3.42-0.294-6.839-0.445-10.259C219.666,12.464,219.674,12.286,219.674,12.004z
		 M213.383,25.551c1.09,0.028,1.445-0.361,1.289-1.239c-0.063-0.35-0.166-0.704-0.313-1.026c-0.372-0.808-0.886-1.51-1.878-1.517
		c-1.014-0.007-1.381,0.789-1.723,1.565c-0.082,0.185-0.186,0.374-0.205,0.568c-0.014,0.15,0.041,0.372,0.148,0.457
		C211.545,25.025,212.486,25.476,213.383,25.551z"/>
	<path fill-rule="evenodd" clip-rule="evenodd" fill="#333333" d="M369.748,27.164c-0.447,1.01-0.768,1.982-1.275,2.843
		c-1.463,2.471-4.094,3.512-6.645,2.722c-0.043-0.014-0.088-0.02-0.131-0.034c-1.305-0.44-1.42-0.677-0.947-2.023
		c1.719,0.696,3.443,0.878,5.088-0.183c1.188-0.765,1.873-1.898,2.229-3.216c-0.93-0.14-1.836-0.195-2.693-0.421
		c-1.691-0.445-2.566-1.731-2.527-3.533c0.037-1.61,1.119-2.998,2.629-3.369c1.191-0.293,2.395,0.188,3.18,1.276
		c0.74,1.027,0.951,2.218,1.068,3.438c0.016,0.177,0.029,0.353,0.047,0.603c0.24,0,0.457,0,0.676,0c2.117,0,4.238-0.025,6.354,0.012
		c0.949,0.017,1.525-0.395,1.879-1.233c0.404-0.951,0.771-1.923,1.26-2.83c0.52-0.967,1.385-1.511,2.512-1.344
		c0.529,0.079,1.123,0.284,1.518,0.628c1.352,1.176,1.869,2.75,1.678,4.498c-0.17,1.563-1.445,2.414-3.025,2.107
		c-0.566-0.11-1.129-0.312-1.656-0.553c-0.504-0.231-0.965-0.566-1.512-0.896c-0.629,1.479-1.902,1.548-3.271,1.521
		C374.018,27.132,371.855,27.164,369.748,27.164z M368.295,25.41c-0.021-1.333-0.221-2.376-0.947-3.25
		c-0.518-0.623-1.32-0.85-2-0.61c-0.648,0.229-1.119,0.888-1.146,1.602c-0.029,0.796,0.332,1.446,1.168,1.693
		C366.277,25.113,367.234,25.214,368.295,25.41z M383.053,25.282c1.084,0.025,1.396-0.292,1.287-1.177
		c-0.111-0.901-0.506-1.675-1.221-2.25c-0.67-0.537-1.508-0.531-1.982,0.105c-0.383,0.508-0.609,1.135-0.873,1.723
		c-0.043,0.093,0.035,0.311,0.127,0.386C381.229,24.742,382.162,25.206,383.053,25.282z"/>
	<path fill-rule="evenodd" clip-rule="evenodd" fill="#333333" d="M260.604,29.971c1.117,0.522,2.227,0.8,3.432,0.603
		c1.93-0.317,3.828-2.87,2.832-5.018c-0.537-1.162-1.066-2.327-1.637-3.57c0.465-0.246,0.951-0.501,1.502-0.79
		c0.359,0.821,0.707,1.597,1.041,2.38c0.543,1.283,1.148,1.709,2.529,1.686c0.959-0.017,1.916-0.083,3.004-0.135
		c-0.182-0.169-0.25-0.245-0.33-0.31c-1.33-1.077-1.818-2.432-1.307-4.084c0.477-1.534,1.971-2.68,3.668-2.733
		c0.727-0.022,1.471,0.135,2.191,0.277c1.123,0.221,0.871,1.169,0.965,1.762c-1.094-0.109-2.191-0.298-3.289-0.292
		c-0.518,0.002-1.096,0.289-1.531,0.604c-0.992,0.719-1.107,1.893-0.311,2.843c1.084,1.29,2.461,1.858,4.15,1.486
		c0.783-0.173,1.561-0.38,2.41-0.588c-0.07,0.527-0.086,1.05-0.229,1.534c-0.057,0.192-0.377,0.388-0.607,0.432
		c-1.787,0.341-3.576,0.692-5.377,0.941c-1.066,0.146-2.156,0.144-3.236,0.154c-0.621,0.006-1.242-0.098-1.895-0.155
		c-0.102,0.479-0.176,1.054-0.342,1.601c-0.889,2.901-3.768,4.485-6.439,3.564C260.451,31.7,260.313,31.457,260.604,29.971z"/>
	<path fill-rule="evenodd" clip-rule="evenodd" fill="#333333" d="M232.826,24.967c-0.078-0.04-0.166-0.067-0.232-0.122
		c-1.342-1.057-1.855-2.401-1.363-4.065c0.451-1.519,1.875-2.64,3.564-2.781c0.531-0.044,1.082,0.001,1.609,0.095
		c1.438,0.254,1.703,0.624,1.656,1.94c-1.094-0.106-2.195-0.264-3.303-0.296c-0.416-0.012-0.881,0.198-1.258,0.42
		c-1.209,0.714-1.432,2.048-0.51,3.103c1.09,1.246,2.459,1.79,4.117,1.414c0.766-0.174,1.523-0.371,2.381-0.58
		c-0.066,0.521-0.08,1.054-0.225,1.55c-0.053,0.188-0.387,0.375-0.621,0.418c-1.789,0.338-3.574,0.704-5.377,0.932
		c-1.27,0.16-2.564,0.169-3.846,0.149c-2.006-0.028-3.191-1.084-3.469-3.078c-0.139-1-0.166-2.019-0.209-3.03
		c-0.123-2.835-0.229-5.672-0.338-8.509c-0.006-0.156-0.002-0.312-0.002-0.549c0.51-0.038,0.992-0.074,1.551-0.117
		c0.021,0.434,0.043,0.809,0.057,1.184c0.131,3.219,0.227,6.439,0.4,9.655c0.102,1.895,0.928,2.599,2.822,2.559
		c0.832-0.018,1.662-0.085,2.492-0.129C232.76,25.076,232.793,25.022,232.826,24.967z"/>
	<path fill-rule="evenodd" clip-rule="evenodd" fill="#333333" d="M358.4,21.047c0.359-0.107,0.828-0.247,1.285-0.382
		c0.967,1.43,0.744,4.399-0.398,5.601c-1.297,1.366-3.236,1.162-4.414-0.496c-0.809,1.207-1.9,1.667-3.336,1.23
		c-0.084,0.335-0.15,0.664-0.252,0.981c-0.99,3.092-4.787,4.726-7.711,3.298c-1.736-0.848-2.506-2.362-2.594-4.201
		c-0.045-0.927,0.113-1.883,0.311-2.798c0.227-1.052,0.287-1.038,1.363-0.684c-0.092,0.756-0.232,1.507-0.266,2.264
		c-0.092,2.174,1.107,3.677,3.117,3.976c2.113,0.314,4.133-0.877,4.594-2.86c0.156-0.678-0.006-1.472-0.184-2.173
		c-0.24-0.953-0.637-1.867-0.996-2.883c0.441-0.172,0.912-0.355,1.514-0.588c0.293,0.935,0.598,1.839,0.857,2.757
		c0.152,0.533,0.258,1.076,0.922,1.187c0.748,0.125,1.432-0.039,1.816-0.729c0.334-0.6,0.537-1.271,0.824-1.978
		c0.318,0,0.715,0,1.146,0c-0.029,0.428-0.082,0.846-0.08,1.262c0.008,0.97,0.426,1.423,1.299,1.454
		c0.959,0.034,1.742-0.545,1.691-1.429C358.854,22.935,358.588,22.025,358.4,21.047z"/>
	<path fill-rule="evenodd" clip-rule="evenodd" fill="#333333" d="M256.564,18.451c0.559,1.227,1.164,2.355,1.59,3.548
		c0.377,1.053,0.23,2.086-0.824,2.83c0.148,0.076,0.242,0.128,0.342,0.176c1.998,0.963,2.414,2.83,0.975,4.549
		c-1.396,1.67-3.279,2.425-5.387,2.583c-0.998,0.075-2.041,0.029-3.018-0.177c-2.316-0.493-3.658-2.181-3.721-4.654
		c-0.023-0.929,0.137-1.881,0.346-2.792c0.252-1.113,0.313-1.1,1.488-0.771c-0.098,0.521-0.209,1.042-0.295,1.569
		c-0.467,2.847,0.838,4.673,3.674,5.038c1.641,0.211,3.248-0.019,4.701-0.852c0.529-0.305,1.023-0.744,1.4-1.226
		c0.563-0.716,0.359-1.436-0.506-1.698c-0.76-0.23-1.584-0.258-2.383-0.35c-0.311-0.036-0.629-0.006-1.008-0.006
		c0.08-0.256,0.16-0.459,0.209-0.67c0.162-0.692,0.396-1.125,1.293-1.18c1.338-0.084,1.727-0.848,1.266-2.119
		c-0.189-0.524-0.465-1.023-0.744-1.507c-0.279-0.485-0.613-0.938-0.969-1.474C255.455,19.027,255.9,18.795,256.564,18.451z"/>
	<path fill-rule="evenodd" clip-rule="evenodd" fill="#333333" d="M332.994,27.134c-0.594,0-1.061,0-1.592,0
		c-0.197-5.052-0.395-10.076-0.59-15.173c0.533-0.038,1.018-0.071,1.588-0.111C332.598,16.962,332.795,22.026,332.994,27.134z"/>
	<path fill-rule="evenodd" clip-rule="evenodd" fill="#333333" d="M258.396,32.171c0.635-0.018,1.082,0.43,1.104,1.105
		c0.018,0.689-0.379,1.155-1.016,1.187c-0.672,0.035-1.137-0.426-1.145-1.131C257.334,32.662,257.766,32.189,258.396,32.171z"/>
	<path fill-rule="evenodd" clip-rule="evenodd" fill="#333333" d="M199.586,37.088c-0.65,0.006-1.096-0.446-1.09-1.109
		c0.006-0.659,0.463-1.118,1.104-1.105c0.615,0.011,1.037,0.446,1.052,1.083C200.666,36.622,200.232,37.082,199.586,37.088z"/>
	<path fill-rule="evenodd" clip-rule="evenodd" fill="#333333" d="M395.148,14.047c-0.645-0.008-1.082-0.474-1.068-1.139
		c0.016-0.653,0.482-1.1,1.129-1.077c0.617,0.023,1.027,0.463,1.027,1.104C396.238,13.606,395.799,14.055,395.148,14.047z"/>
	<path fill-rule="evenodd" clip-rule="evenodd" fill="#333333" d="M251.736,36.49c-0.641-0.015-1.072-0.488-1.053-1.152
		c0.023-0.652,0.492-1.093,1.141-1.063c0.615,0.028,1.023,0.476,1.016,1.115C252.832,36.054,252.383,36.503,251.736,36.49z"/>
	<path fill-rule="evenodd" clip-rule="evenodd" fill="#333333" d="M255.605,35.377c0,0.682-0.432,1.126-1.076,1.113
		c-0.609-0.012-1.008-0.45-1.008-1.108c0-0.66,0.395-1.095,1.006-1.11C255.182,34.256,255.605,34.691,255.605,35.377z"/>
	<path fill-rule="evenodd" clip-rule="evenodd" fill="#333333" d="M202.452,37.088c-0.63,0.01-1.026-0.394-1.043-1.062
		c-0.017-0.691,0.397-1.155,1.03-1.154c0.613,0.001,1.033,0.427,1.053,1.07C203.514,36.623,203.1,37.079,202.452,37.088z"/>
</g>
<g>
	<path fill-rule="evenodd" clip-rule="evenodd" fill="#333333" d="M249.746,111.16c0.385-1.623,1.549-2.583,2.9-3.372
		c0.486-0.284,0.988-0.543,1.492-0.796c0.158-0.08,0.215-0.172,0.209-0.349c-0.014-0.401-0.006-0.804-0.006-1.253
		c0.365-0.04,0.77-0.082,1.207-0.128c0.02,0.323,0.043,0.622,0.055,0.921c0.066,1.643,0.121,3.285,0.197,4.926
		c0.016,0.339,0.074,0.684,0.168,1.01c0.238,0.83,0.766,1.229,1.629,1.275c0.121,0.006,0.242,0.005,0.363,0.005
		c6.584,0.002,13.168,0.004,19.752,0.005c1.16,0,1.92-0.596,2.219-1.756c0.088-0.348,0.141-0.707,0.213-1.078
		c0.352-0.027,0.699-0.057,1.045-0.084c0.025,0.457,0.018,0.891,0.082,1.313c0.189,1.235,1.457,1.97,2.621,1.499
		c0.275-0.111,0.533-0.37,0.699-0.626c0.213-0.333,0.324-0.732,0.49-1.099c0.264-0.586,0.484-1.201,0.814-1.746
		c0.908-1.492,2.727-1.65,3.873-0.332c0.953,1.096,1.367,2.398,1.123,3.844c-0.207,1.223-1.225,1.895-2.461,1.734
		c-0.924-0.119-1.734-0.504-2.492-1.02c-0.15-0.101-0.297-0.205-0.473-0.33c-0.5,1.166-1.432,1.469-2.582,1.354
		c-1.143-0.112-1.99-0.612-2.355-1.771c-0.033,0.027-0.064,0.039-0.074,0.063c-0.512,1.218-1.504,1.665-2.742,1.721
		c-0.082,0.004-0.162,0.002-0.242,0.002c-6.555,0-13.109,0.003-19.664-0.006c-0.387,0-0.785-0.051-1.164-0.146
		c-0.824-0.208-1.389-0.742-1.727-1.537c-0.844,0.418-1.723,0.59-2.645,0.541c-0.541-0.029-1.051-0.171-1.516-0.459
		c-0.557-0.345-0.848-0.867-1.01-1.479C249.746,111.725,249.746,111.443,249.746,111.16z M254.402,108.258
		c-1.117,0.503-2.193,0.995-2.984,1.934c-0.09,0.107-0.164,0.23-0.229,0.354c-0.393,0.761-0.121,1.414,0.701,1.644
		c0.857,0.24,1.695,0.109,2.518-0.178c0.072-0.023,0.16-0.137,0.156-0.205C254.52,110.64,254.461,109.475,254.402,108.258z
		 M288.764,113.456c0.803,0.011,1.104-0.288,1.031-0.956c-0.09-0.821-0.424-1.533-1.061-2.074c-0.664-0.564-1.486-0.474-1.953,0.26
		c-0.273,0.427-0.439,0.922-0.639,1.393c-0.025,0.058,0.016,0.184,0.066,0.228C286.986,112.949,287.857,113.383,288.764,113.456z"/>
	<path fill-rule="evenodd" clip-rule="evenodd" fill="#333333" d="M278.973,119.754c-0.436-0.209-0.691-0.531-0.664-1.039
		c0.023-0.481,0.324-0.84,0.771-0.908c0.502-0.078,0.904,0.146,1.057,0.592c0.168,0.479,0.002,1.002-0.385,1.228
		c-0.076,0.045-0.156,0.085-0.234,0.128C279.336,119.754,279.154,119.754,278.973,119.754z"/>
	<path fill-rule="evenodd" clip-rule="evenodd" fill="#333333" d="M281.516,119.754c-0.457-0.177-0.674-0.51-0.666-0.998
		c0.008-0.523,0.285-0.883,0.742-0.951c0.51-0.076,0.932,0.168,1.07,0.62c0.154,0.517-0.041,1.027-0.475,1.24
		c-0.063,0.03-0.125,0.06-0.188,0.089C281.838,119.754,281.676,119.754,281.516,119.754z"/>
	<path fill-rule="evenodd" clip-rule="evenodd" fill="#333333" d="M369.42,113.393c-0.811,1.865-3.744,2.309-4.729,0.775
		c-0.033,0.035-0.068,0.064-0.092,0.102c-0.52,0.816-1.273,1.094-2.209,0.983c-0.9-0.107-1.703-0.466-2.457-0.948
		c-0.17-0.107-0.336-0.223-0.502-0.334c-0.02,0.01-0.045,0.015-0.053,0.029c-0.545,0.836-1.332,1.104-2.305,1.104
		c-8.139-0.017-16.277-0.008-24.414-0.016c-0.43,0-0.871-0.045-1.287-0.148c-1.182-0.291-1.824-1.132-2.031-2.271
		c-0.16-0.868-0.205-1.76-0.244-2.644c-0.117-2.609-0.209-5.219-0.311-7.829c-0.006-0.16,0-0.32,0-0.515
		c0.451-0.031,0.896-0.062,1.371-0.094c0.02,0.335,0.043,0.644,0.055,0.953c0.107,2.77,0.209,5.541,0.32,8.313
		c0.014,0.301,0.053,0.603,0.115,0.897c0.215,1.052,0.832,1.577,1.906,1.644c0.111,0.006,0.223,0.005,0.334,0.005
		c8.078,0.001,16.156-0.005,24.232,0.009c0.811,0.002,1.318-0.326,1.609-1.058c0.195-0.495,0.383-0.997,0.609-1.479
		c0.166-0.354,0.355-0.703,0.584-1.02c0.826-1.143,2.336-1.336,3.436-0.45c0.756,0.605,1.16,1.427,1.424,2.337
		c0.061,0.211,0.137,0.42,0.232,0.617c0.512,1.039,1.256,1.32,2.512,0.838c0.742-0.284,0.961-0.991,0.994-1.705
		c0.043-0.955,0.018-1.914-0.012-2.87c-0.072-2.247-0.166-4.495-0.248-6.741c-0.002-0.049,0.008-0.098,0.014-0.18
		c0.453-0.035,0.9-0.07,1.373-0.108c0.029,0.698,0.061,1.36,0.086,2.024c0.088,2.297,0.164,4.596,0.266,6.892
		c0.023,0.49,0.104,0.983,0.213,1.462c0.188,0.824,0.707,1.326,1.566,1.401c0.961,0.083,1.916,0.036,2.838-0.281
		c0.188-0.064,0.369-0.163,0.533-0.276c0.488-0.338,0.68-0.842,0.418-1.371c-0.242-0.49-0.551-0.965-0.914-1.374
		c-1.096-1.239-2.432-2.204-3.793-3.128c-0.221-0.15-0.324-0.299-0.271-0.563c0.047-0.238,0.074-0.479,0.094-0.721
		c0.029-0.377,0.229-0.621,0.545-0.811c2.133-1.276,4.359-2.352,6.701-3.184c0.057-0.02,0.113-0.032,0.215-0.061
		c-0.096,0.527-0.18,1.03-0.289,1.527c-0.018,0.074-0.148,0.145-0.24,0.18c-1.77,0.68-3.504,1.434-5.172,2.336
		c-0.158,0.086-0.313,0.181-0.508,0.293c0.105,0.086,0.188,0.151,0.27,0.219c1.037,0.865,2.096,1.705,3.1,2.605
		c0.643,0.573,1.137,1.282,1.408,2.119c0.51,1.563-0.076,2.988-1.568,3.676c-1.234,0.568-2.551,0.664-3.879,0.447
		c-0.84-0.137-1.443-0.637-1.762-1.445C369.482,113.504,369.451,113.455,369.42,113.393z M362.707,113.639
		c0.699,0.006,1.029-0.205,1.029-0.663c0.002-1.001-0.352-1.86-1.201-2.438c-0.609-0.414-1.381-0.286-1.791,0.326
		c-0.291,0.436-0.475,0.945-0.693,1.428c-0.023,0.055,0.02,0.178,0.07,0.221C360.914,113.151,361.805,113.564,362.707,113.639z"/>
	<path fill-rule="evenodd" clip-rule="evenodd" fill="#333333" d="M305.551,112.367c-0.064,0.463-0.125,0.951-0.217,1.434
		c-0.016,0.084-0.158,0.182-0.26,0.207c-0.982,0.245-1.963,0.531-2.961,0.7c-1.723,0.29-3.463,0.406-5.211,0.382
		c-0.301-0.004-0.607-0.025-0.9-0.084c-1.359-0.266-2.156-1.137-2.377-2.654c-0.104-0.715-0.135-1.443-0.164-2.168
		c-0.115-2.73-0.217-5.46-0.322-8.19c-0.004-0.09,0-0.181,0-0.31c0.451-0.031,0.896-0.063,1.377-0.098
		c0.018,0.318,0.041,0.617,0.053,0.916c0.107,2.76,0.209,5.521,0.32,8.281c0.012,0.311,0.047,0.624,0.109,0.928
		c0.23,1.135,0.895,1.673,2.057,1.688c0.211,0.003,0.424,0,0.633-0.011c0.666-0.034,1.33-0.073,2.078-0.114
		c-0.133-0.104-0.213-0.164-0.291-0.227c-0.928-0.73-1.492-1.641-1.361-2.865c0.176-1.67,1.508-2.972,3.186-3.134
		c0.898-0.087,1.768,0.006,2.584,0.435c0.199,0.104,0.299,0.24,0.316,0.467c0.025,0.357,0.074,0.715,0.115,1.104
		c-0.84-0.425-1.705-0.571-2.604-0.549c-0.553,0.013-1.076,0.153-1.541,0.466c-0.979,0.656-1.16,1.773-0.385,2.656
		c0.961,1.092,2.154,1.602,3.625,1.259C304.113,112.723,304.813,112.547,305.551,112.367z"/>
	<path fill-rule="evenodd" clip-rule="evenodd" fill="#333333" d="M312.365,108.218c0.328,0.065,0.643,0.128,0.98,0.194
		c-0.051,0.33-0.133,0.645-0.139,0.959c-0.014,0.501-0.035,1.014,0.051,1.503c0.236,1.311,1.086,2.122,2.313,2.506
		c0.695,0.218,1.434,0.366,2.158,0.403c2.285,0.115,4.557-0.035,6.764-0.7c0.684-0.206,0.699-0.029,0.609-0.935
		c-0.129-1.318-0.361-2.008-1.285-3.951c0.223-0.064,0.436-0.126,0.652-0.188c0.213-0.059,0.426-0.117,0.656-0.182
		c0.039,0.055,0.088,0.104,0.117,0.164c0.752,1.488,1.18,3.059,1.172,4.734c-0.004,1.244-0.051,1.302-1.221,1.705
		c-2.711,0.938-5.502,1.195-8.346,0.945c-0.625-0.055-1.254-0.21-1.852-0.408c-1.908-0.635-2.936-2.025-3.035-4.036
		c-0.041-0.821,0.039-1.631,0.293-2.417C312.283,108.421,312.324,108.33,312.365,108.218z"/>
	<path fill-rule="evenodd" clip-rule="evenodd" fill="#333333" d="M387.467,105.18c0.34,0,0.641-0.002,0.941,0.001
		c0.078,0,0.154,0.011,0.268,0.019c0,1.453,0,2.889,0,4.358c1.41,0,2.787,0,4.176,0c0,0.384,0,0.733,0,1.112
		c-1.387,0-2.762,0-4.168,0c0,1.477,0,2.924,0,4.395c-0.404,0-0.783,0-1.197,0c0-1.442,0-2.896,0-4.381c-1.41,0-2.787,0-4.184,0
		c0-0.385,0-0.739,0-1.12c1.383,0,2.752,0,4.164,0C387.467,108.096,387.467,106.652,387.467,105.18z"/>
	<path fill-rule="evenodd" clip-rule="evenodd" fill="#333333" d="M316.846,106.258c-0.004-0.592,0.375-0.994,0.939-0.994
		c0.566-0.002,0.947,0.396,0.945,0.987c-0.002,0.581-0.367,0.968-0.924,0.976C317.232,107.234,316.848,106.849,316.846,106.258z"/>
	<path fill-rule="evenodd" clip-rule="evenodd" fill="#333333" d="M253.465,103.545c-0.576-0.004-0.945-0.391-0.936-0.982
		c0.01-0.574,0.41-0.973,0.971-0.963s0.922,0.41,0.914,1.01C254.406,103.188,254.039,103.549,253.465,103.545z"/>
	<path fill-rule="evenodd" clip-rule="evenodd" fill="#333333" d="M321.213,106.23c0.004,0.604-0.357,0.99-0.934,0.996
		c-0.555,0.005-0.924-0.374-0.932-0.964c-0.01-0.585,0.355-0.989,0.9-0.999C320.822,105.253,321.205,105.637,321.213,106.23z"/>
	<path fill-rule="evenodd" clip-rule="evenodd" fill="#333333" d="M255.988,103.545c-0.566,0.002-0.918-0.365-0.918-0.96
		c0-0.588,0.363-0.981,0.906-0.985c0.568-0.004,0.953,0.387,0.959,0.973C256.941,103.164,256.57,103.545,255.988,103.545z"/>
</g>
<g>
	<path fill="#333333" d="M142.5,116.137c-0.662,0.332-1.984,0.662-3.681,0.662c-3.928,0-6.884-2.481-6.884-7.05
		c0-4.362,2.956-7.319,7.277-7.319c1.736,0,2.832,0.373,3.307,0.621l-0.434,1.468c-0.682-0.331-1.654-0.579-2.811-0.579
		c-3.268,0-5.438,2.088-5.438,5.748c0,3.41,1.964,5.602,5.355,5.602c1.095,0,2.212-0.228,2.935-0.578L142.5,116.137z"/>
	<path fill="#333333" d="M153.516,111.506c0,3.701-2.563,5.313-4.98,5.313c-2.709,0-4.797-1.984-4.797-5.147
		c0-3.349,2.191-5.313,4.961-5.313C151.574,106.358,153.516,108.446,153.516,111.506z M145.578,111.609
		c0,2.191,1.262,3.846,3.039,3.846c1.736,0,3.039-1.633,3.039-3.887c0-1.695-0.848-3.846-2.998-3.846
		C146.509,107.723,145.578,109.707,145.578,111.609z"/>
	<path fill="#333333" d="M155.811,109.852c0-1.281-0.042-2.314-0.083-3.266h1.634l0.082,1.716h0.041
		c0.744-1.22,1.922-1.943,3.557-1.943c2.418,0,4.238,2.046,4.238,5.085c0,3.598-2.191,5.375-4.549,5.375
		c-1.324,0-2.482-0.578-3.08-1.57h-0.041v5.438h-1.799V109.852z M157.609,112.52c0,0.269,0.041,0.516,0.082,0.744
		c0.331,1.26,1.427,2.129,2.729,2.129c1.923,0,3.039-1.57,3.039-3.866c0-2.005-1.055-3.72-2.977-3.72
		c-1.24,0-2.398,0.889-2.75,2.252c-0.063,0.229-0.123,0.496-0.123,0.745V112.52z"/>
	<path fill="#333333" d="M168.088,106.586l2.191,5.912c0.228,0.662,0.477,1.447,0.641,2.047h0.041
		c0.188-0.6,0.394-1.364,0.642-2.088l1.985-5.871h1.922l-2.729,7.133c-1.303,3.432-2.191,5.188-3.432,6.264
		c-0.889,0.785-1.778,1.096-2.232,1.178l-0.455-1.529c0.455-0.145,1.055-0.435,1.592-0.889c0.496-0.394,1.117-1.096,1.529-2.026
		c0.082-0.187,0.145-0.331,0.145-0.435s-0.041-0.248-0.123-0.475l-3.701-9.221H168.088z"/>
	<path fill="#333333" d="M177.162,109.707c0-1.178-0.02-2.19-0.082-3.121h1.592l0.062,1.964h0.083
		c0.455-1.344,1.551-2.191,2.771-2.191c0.207,0,0.351,0.021,0.517,0.063v1.716c-0.186-0.042-0.372-0.063-0.619-0.063
		c-1.283,0-2.193,0.972-2.44,2.336c-0.042,0.248-0.083,0.538-0.083,0.848v5.334h-1.799V109.707z"/>
	<path fill="#333333" d="M186.031,103.774c0.02,0.62-0.436,1.116-1.158,1.116c-0.642,0-1.097-0.496-1.097-1.116
		c0-0.642,0.476-1.138,1.138-1.138C185.596,102.637,186.031,103.133,186.031,103.774z M184.004,116.592v-10.006h1.819v10.006
		H184.004z"/>
	<path fill="#333333" d="M197.462,106.586c-0.041,0.724-0.083,1.529-0.083,2.749v5.81c0,2.295-0.455,3.701-1.426,4.568
		c-0.972,0.91-2.378,1.199-3.639,1.199c-1.199,0-2.523-0.289-3.328-0.826l0.455-1.385c0.66,0.412,1.695,0.785,2.935,0.785
		c1.86,0,3.226-0.972,3.226-3.494v-1.117h-0.041c-0.559,0.932-1.633,1.676-3.185,1.676c-2.481,0-4.259-2.109-4.259-4.88
		c0-3.39,2.213-5.313,4.508-5.313c1.736,0,2.688,0.909,3.121,1.736h0.041l0.083-1.509H197.462z M195.581,110.535
		c0-0.311-0.021-0.58-0.104-0.828c-0.331-1.055-1.22-1.922-2.543-1.922c-1.737,0-2.978,1.467-2.978,3.783
		c0,1.963,0.992,3.597,2.957,3.597c1.116,0,2.13-0.703,2.522-1.86c0.103-0.311,0.145-0.662,0.145-0.971V110.535z"/>
	<path fill="#333333" d="M200.395,101.914h1.82v6.243h0.041c0.29-0.517,0.744-0.972,1.303-1.282c0.537-0.311,1.179-0.517,1.86-0.517
		c1.344,0,3.493,0.827,3.493,4.279v5.954h-1.818v-5.748c0-1.611-0.6-2.976-2.315-2.976c-1.179,0-2.108,0.827-2.44,1.819
		c-0.104,0.247-0.123,0.516-0.123,0.867v6.037h-1.82V101.914z"/>
	<path fill="#333333" d="M213.977,103.712v2.874h2.605v1.385h-2.605v5.396c0,1.241,0.352,1.944,1.365,1.944
		c0.475,0,0.826-0.063,1.054-0.125l0.083,1.365c-0.352,0.144-0.91,0.248-1.613,0.248c-0.848,0-1.53-0.27-1.963-0.766
		c-0.518-0.537-0.703-1.426-0.703-2.605v-5.457h-1.551v-1.385h1.551v-2.398L213.977,103.712z"/>
</g>
<g>
	<path fill="#333333" d="M221.457,110.135c0-2.004,0.711-3.714,2.133-5.132s3.134-2.128,5.139-2.128c2,0,3.713,0.71,5.131,2.128
		s2.127,3.128,2.127,5.132c0,2.002-0.709,3.715-2.127,5.137s-3.131,2.133-5.131,2.133c-2.005,0-3.717-0.711-5.139-2.133
		S221.457,112.137,221.457,110.135z M234.803,110.135c0-1.681-0.594-3.113-1.777-4.298c-1.186-1.185-2.617-1.776-4.297-1.776
		c-1.682,0-3.116,0.592-4.305,1.776c-1.188,1.185-1.782,2.617-1.782,4.298c0,1.68,0.595,3.113,1.782,4.303
		c1.188,1.188,2.623,1.782,4.305,1.782c1.68,0,3.111-0.595,4.297-1.782C234.209,113.248,234.803,111.814,234.803,110.135z
		 M231.506,113.645c-0.719,0.711-1.629,1.067-2.736,1.067c-1.162,0-2.082-0.418-2.757-1.255S225,111.506,225,110.113
		c0-1.343,0.359-2.453,1.078-3.333c0.717-0.88,1.644-1.319,2.777-1.319c0.984,0,1.744,0.158,2.285,0.474l-0.412,1.044
		c-0.387-0.279-1.004-0.42-1.85-0.42c-0.792,0-1.422,0.338-1.893,1.013c-0.469,0.675-0.704,1.544-0.704,2.606
		c0,1.02,0.243,1.846,0.732,2.477c0.488,0.633,1.116,0.948,1.886,0.948c0.84,0,1.482-0.294,1.928-0.884L231.506,113.645z"/>
</g>
</svg>
